# xmcd
#
# Track frame offsets:
#	150
#	13394
#	28270
#	44872
#	58127
#	71366
#	92312
#	110970
#	125435
#	135218
#	149922
#	164708
#
# Disc length: 2331 seconds
#
# Revision: 1
# Processed by: cddbd v1.5.2PL0 Copyright (c) Steve Scherf et al.
# Submitted via: audiograbber 1.83.01
#
DISCID=bd09190c
DTITLE=John Denver - The Box Set Series
DYEAR=2014
DGENRE=Country
TTITLE0=Daydreams
TTITLE1=Rhymes and Reasons
TTITLE2=Leaving on a Jet Plane
TTITLE3=Take Me to Tomorrow
TTITLE4=Follow Me
TTITLE5=Sail Away Home
TTITLE6=Poems, Prayers and Promises
TTITLE7=Take Me Home, Country Roads
TTITLE8=I Guess He'd Rather Be in Colorado
TTITLE9=Starwood in Aspen
TTITLE10=Everyday
TTITLE11=The Eagle and the Hawk
EXTD=
EXTT0=
EXTT1=
EXTT2=
EXTT3=
EXTT4=
EXTT5=
EXTT6=
EXTT7=
EXTT8=
EXTT9=
EXTT10=
EXTT11=
PLAYORDER=
